<svg xmlns="http://www.w3.org/2000/svg" width="1024" height="1024" viewBox="0 0 1024 1024"><defs>
  <clipPath id="squircle">
    <rect x="0" y="0" width="1024" height="1024" rx="224"/>
  </clipPath>
  <radialGradient id="glow" cx="50%" cy="60%" r="62%">
    <stop offset="0%" stop-color="#00ff41" stop-opacity="0.28"/>
    <stop offset="55%" stop-color="#00ff41" stop-opacity="0.06"/>
    <stop offset="100%" stop-color="#00ff41" stop-opacity="0"/>
  </radialGradient>
  <linearGradient id="cup" x1="0" y1="0" x2="0" y2="1">
    <stop offset="0%" stop-color="#f2f7f1"/>
    <stop offset="45%" stop-color="#cdd8cf"/>
    <stop offset="100%" stop-color="#8f9d92"/>
  </linearGradient>
  <linearGradient id="rim" x1="0" y1="0" x2="0" y2="1">
    <stop offset="0%" stop-color="#ffffff"/>
    <stop offset="100%" stop-color="#b9c6bb"/>
  </linearGradient>
</defs><g clip-path="url(#squircle)"><rect x="0" y="0" width="1024" height="1024" fill="#050a06"/><rect x="0" y="0" width="1024" height="1024" fill="url(#glow)"/><rect x="40.0" y="-35.0" width="6.0" height="22.0" rx="2" fill="#7dffae" opacity="0.214"/><rect x="40.0" y="3.0" width="6.0" height="18.0" rx="2" fill="#00ff41" opacity="0.126"/><rect x="40.0" y="37.0" width="6.0" height="26.0" rx="2" fill="#00ff41" opacity="0.126"/><rect x="40.0" y="79.0" width="6.0" height="22.0" rx="2" fill="#00ff41" opacity="0.126"/><rect x="40.0" y="117.0" width="6.0" height="18.0" rx="2" fill="#00ff41" opacity="0.126"/><rect x="40.0" y="151.0" width="6.0" height="18.0" rx="2" fill="#7dffae" opacity="0.214"/><rect x="40.0" y="185.0" width="6.0" height="18.0" rx="2" fill="#7dffae" opacity="0.214"/><rect x="40.0" y="219.0" width="6.0" height="22.0" rx="2" fill="#00ff41" opacity="0.126"/><rect x="40.0" y="257.0" width="6.0" height="18.0" rx="2" fill="#00ff41" opacity="0.126"/><rect x="40.0" y="291.0" width="6.0" height="26.0" rx="2" fill="#00ff41" opacity="0.126"/><rect x="40.0" y="333.0" width="6.0" height="18.0" rx="2" fill="#00ff41" opacity="0.126"/><rect x="40.0" y="367.0" width="6.0" height="18.0" rx="2" fill="#00ff41" opacity="0.126"/><rect x="40.0" y="401.0" width="6.0" height="26.0" rx="2" fill="#00ff41" opacity="0.126"/><rect x="40.0" y="443.0" width="6.0" height="26.0" rx="2" fill="#00ff41" opacity="0.126"/><rect x="40.0" y="485.0" width="6.0" height="26.0" rx="2" fill="#7dffae" opacity="0.214"/><rect x="40.0" y="527.0" width="6.0" height="22.0" rx="2" fill="#7dffae" opacity="0.214"/><rect x="40.0" y="565.0" width="6.0" height="18.0" rx="2" fill="#00ff41" opacity="0.126"/><rect x="40.0" y="599.0" width="6.0" height="26.0" rx="2" fill="#00ff41" opacity="0.126"/><rect x="40.0" y="641.0" width="6.0" height="22.0" rx="2" fill="#7dffae" opacity="0.214"/><rect x="40.0" y="679.0" width="6.0" height="18.0" rx="2" fill="#00ff41" opacity="0.126"/><rect x="40.0" y="713.0" width="6.0" height="18.0" rx="2" fill="#00ff41" opacity="0.126"/><rect x="40.0" y="747.0" width="6.0" height="22.0" rx="2" fill="#7dffae" opacity="0.214"/><rect x="40.0" y="785.0" width="6.0" height="26.0" rx="2" fill="#00ff41" opacity="0.126"/><rect x="40.0" y="827.0" width="6.0" height="18.0" rx="2" fill="#00ff41" opacity="0.126"/><rect x="40.0" y="861.0" width="6.0" height="26.0" rx="2" fill="#00ff41" opacity="0.126"/><rect x="40.0" y="903.0" width="6.0" height="18.0" rx="2" fill="#00ff41" opacity="0.126"/><rect x="40.0" y="937.0" width="6.0" height="18.0" rx="2" fill="#00ff41" opacity="0.126"/><rect x="40.0" y="971.0" width="6.0" height="26.0" rx="2" fill="#00ff41" opacity="0.126"/><rect x="40.0" y="1013.0" width="6.0" height="26.0" rx="2" fill="#00ff41" opacity="0.126"/><rect x="40.0" y="1055.0" width="6.0" height="26.0" rx="2" fill="#00ff41" opacity="0.126"/><rect x="124.0" y="54.0" width="6.0" height="22.0" rx="2" fill="#7dffae" opacity="0.178"/><rect x="124.0" y="92.0" width="6.0" height="22.0" rx="2" fill="#00ff41" opacity="0.104"/><rect x="124.0" y="130.0" width="6.0" height="22.0" rx="2" fill="#00ff41" opacity="0.104"/><rect x="124.0" y="168.0" width="6.0" height="22.0" rx="2" fill="#00ff41" opacity="0.104"/><rect x="124.0" y="206.0" width="6.0" height="18.0" rx="2" fill="#00ff41" opacity="0.104"/><rect x="124.0" y="240.0" width="6.0" height="18.0" rx="2" fill="#7dffae" opacity="0.178"/><rect x="124.0" y="274.0" width="6.0" height="26.0" rx="2" fill="#7dffae" opacity="0.178"/><rect x="124.0" y="316.0" width="6.0" height="26.0" rx="2" fill="#00ff41" opacity="0.104"/><rect x="124.0" y="358.0" width="6.0" height="22.0" rx="2" fill="#00ff41" opacity="0.104"/><rect x="124.0" y="396.0" width="6.0" height="22.0" rx="2" fill="#00ff41" opacity="0.104"/><rect x="124.0" y="434.0" width="6.0" height="26.0" rx="2" fill="#7dffae" opacity="0.178"/><rect x="124.0" y="476.0" width="6.0" height="18.0" rx="2" fill="#00ff41" opacity="0.104"/><rect x="124.0" y="510.0" width="6.0" height="22.0" rx="2" fill="#00ff41" opacity="0.104"/><rect x="124.0" y="548.0" width="6.0" height="22.0" rx="2" fill="#00ff41" opacity="0.104"/><rect x="124.0" y="586.0" width="6.0" height="22.0" rx="2" fill="#00ff41" opacity="0.104"/><rect x="124.0" y="624.0" width="6.0" height="18.0" rx="2" fill="#00ff41" opacity="0.104"/><rect x="124.0" y="658.0" width="6.0" height="18.0" rx="2" fill="#00ff41" opacity="0.104"/><rect x="124.0" y="692.0" width="6.0" height="26.0" rx="2" fill="#00ff41" opacity="0.104"/><rect x="124.0" y="734.0" width="6.0" height="22.0" rx="2" fill="#00ff41" opacity="0.104"/><rect x="124.0" y="772.0" width="6.0" height="22.0" rx="2" fill="#00ff41" opacity="0.104"/><rect x="124.0" y="810.0" width="6.0" height="22.0" rx="2" fill="#00ff41" opacity="0.104"/><rect x="124.0" y="848.0" width="6.0" height="22.0" rx="2" fill="#00ff41" opacity="0.104"/><rect x="124.0" y="886.0" width="6.0" height="18.0" rx="2" fill="#00ff41" opacity="0.104"/><rect x="124.0" y="920.0" width="6.0" height="22.0" rx="2" fill="#00ff41" opacity="0.104"/><rect x="124.0" y="958.0" width="6.0" height="26.0" rx="2" fill="#00ff41" opacity="0.104"/><rect x="124.0" y="1000.0" width="6.0" height="18.0" rx="2" fill="#00ff41" opacity="0.104"/><rect x="124.0" y="1034.0" width="6.0" height="26.0" rx="2" fill="#00ff41" opacity="0.104"/><rect x="208.0" y="131.0" width="6.0" height="26.0" rx="2" fill="#7dffae" opacity="0.164"/><rect x="208.0" y="173.0" width="6.0" height="22.0" rx="2" fill="#00ff41" opacity="0.096"/><rect x="208.0" y="211.0" width="6.0" height="22.0" rx="2" fill="#00ff41" opacity="0.096"/><rect x="208.0" y="249.0" width="6.0" height="22.0" rx="2" fill="#00ff41" opacity="0.096"/><rect x="208.0" y="287.0" width="6.0" height="22.0" rx="2" fill="#00ff41" opacity="0.096"/><rect x="208.0" y="325.0" width="6.0" height="18.0" rx="2" fill="#00ff41" opacity="0.096"/><rect x="208.0" y="359.0" width="6.0" height="18.0" rx="2" fill="#7dffae" opacity="0.164"/><rect x="208.0" y="393.0" width="6.0" height="18.0" rx="2" fill="#00ff41" opacity="0.096"/><rect x="208.0" y="427.0" width="6.0" height="22.0" rx="2" fill="#00ff41" opacity="0.096"/><rect x="208.0" y="465.0" width="6.0" height="26.0" rx="2" fill="#00ff41" opacity="0.096"/><rect x="208.0" y="507.0" width="6.0" height="22.0" rx="2" fill="#00ff41" opacity="0.096"/><rect x="208.0" y="545.0" width="6.0" height="22.0" rx="2" fill="#00ff41" opacity="0.096"/><rect x="208.0" y="583.0" width="6.0" height="18.0" rx="2" fill="#7dffae" opacity="0.164"/><rect x="208.0" y="617.0" width="6.0" height="22.0" rx="2" fill="#00ff41" opacity="0.096"/><rect x="208.0" y="655.0" width="6.0" height="22.0" rx="2" fill="#00ff41" opacity="0.096"/><rect x="208.0" y="693.0" width="6.0" height="22.0" rx="2" fill="#00ff41" opacity="0.096"/><rect x="208.0" y="731.0" width="6.0" height="22.0" rx="2" fill="#00ff41" opacity="0.096"/><rect x="208.0" y="769.0" width="6.0" height="22.0" rx="2" fill="#00ff41" opacity="0.096"/><rect x="208.0" y="807.0" width="6.0" height="26.0" rx="2" fill="#7dffae" opacity="0.164"/><rect x="208.0" y="849.0" width="6.0" height="18.0" rx="2" fill="#00ff41" opacity="0.096"/><rect x="208.0" y="883.0" width="6.0" height="18.0" rx="2" fill="#7dffae" opacity="0.164"/><rect x="208.0" y="917.0" width="6.0" height="18.0" rx="2" fill="#00ff41" opacity="0.096"/><rect x="208.0" y="951.0" width="6.0" height="26.0" rx="2" fill="#00ff41" opacity="0.096"/><rect x="208.0" y="993.0" width="6.0" height="18.0" rx="2" fill="#00ff41" opacity="0.096"/><rect x="208.0" y="1027.0" width="6.0" height="26.0" rx="2" fill="#00ff41" opacity="0.096"/><rect x="292.0" y="-66.0" width="6.0" height="18.0" rx="2" fill="#7dffae" opacity="0.123"/><rect x="292.0" y="-32.0" width="6.0" height="26.0" rx="2" fill="#00ff41" opacity="0.073"/><rect x="292.0" y="10.0" width="6.0" height="26.0" rx="2" fill="#00ff41" opacity="0.073"/><rect x="292.0" y="52.0" width="6.0" height="22.0" rx="2" fill="#00ff41" opacity="0.073"/><rect x="292.0" y="90.0" width="6.0" height="26.0" rx="2" fill="#00ff41" opacity="0.073"/><rect x="292.0" y="132.0" width="6.0" height="26.0" rx="2" fill="#00ff41" opacity="0.073"/><rect x="292.0" y="174.0" width="6.0" height="26.0" rx="2" fill="#00ff41" opacity="0.073"/><rect x="292.0" y="216.0" width="6.0" height="18.0" rx="2" fill="#00ff41" opacity="0.073"/><rect x="292.0" y="250.0" width="6.0" height="26.0" rx="2" fill="#00ff41" opacity="0.073"/><rect x="292.0" y="292.0" width="6.0" height="22.0" rx="2" fill="#00ff41" opacity="0.073"/><rect x="292.0" y="330.0" width="6.0" height="22.0" rx="2" fill="#00ff41" opacity="0.073"/><rect x="292.0" y="368.0" width="6.0" height="18.0" rx="2" fill="#00ff41" opacity="0.073"/><rect x="292.0" y="402.0" width="6.0" height="26.0" rx="2" fill="#7dffae" opacity="0.123"/><rect x="292.0" y="444.0" width="6.0" height="18.0" rx="2" fill="#00ff41" opacity="0.073"/><rect x="292.0" y="478.0" width="6.0" height="18.0" rx="2" fill="#00ff41" opacity="0.073"/><rect x="292.0" y="512.0" width="6.0" height="22.0" rx="2" fill="#7dffae" opacity="0.123"/><rect x="292.0" y="550.0" width="6.0" height="18.0" rx="2" fill="#00ff41" opacity="0.073"/><rect x="292.0" y="584.0" width="6.0" height="26.0" rx="2" fill="#00ff41" opacity="0.073"/><rect x="292.0" y="626.0" width="6.0" height="18.0" rx="2" fill="#00ff41" opacity="0.073"/><rect x="292.0" y="660.0" width="6.0" height="26.0" rx="2" fill="#00ff41" opacity="0.073"/><rect x="292.0" y="702.0" width="6.0" height="26.0" rx="2" fill="#7dffae" opacity="0.123"/><rect x="292.0" y="744.0" width="6.0" height="22.0" rx="2" fill="#7dffae" opacity="0.123"/><rect x="292.0" y="782.0" width="6.0" height="18.0" rx="2" fill="#00ff41" opacity="0.073"/><rect x="292.0" y="816.0" width="6.0" height="18.0" rx="2" fill="#00ff41" opacity="0.073"/><rect x="292.0" y="850.0" width="6.0" height="22.0" rx="2" fill="#00ff41" opacity="0.073"/><rect x="292.0" y="888.0" width="6.0" height="26.0" rx="2" fill="#00ff41" opacity="0.073"/><rect x="292.0" y="930.0" width="6.0" height="22.0" rx="2" fill="#00ff41" opacity="0.073"/><rect x="292.0" y="968.0" width="6.0" height="22.0" rx="2" fill="#00ff41" opacity="0.073"/><rect x="292.0" y="1006.0" width="6.0" height="18.0" rx="2" fill="#00ff41" opacity="0.073"/><rect x="292.0" y="1040.0" width="6.0" height="22.0" rx="2" fill="#00ff41" opacity="0.073"/><rect x="376.0" y="45.0" width="6.0" height="18.0" rx="2" fill="#7dffae" opacity="0.151"/><rect x="376.0" y="79.0" width="6.0" height="18.0" rx="2" fill="#00ff41" opacity="0.089"/><rect x="376.0" y="113.0" width="6.0" height="22.0" rx="2" fill="#00ff41" opacity="0.089"/><rect x="376.0" y="151.0" width="6.0" height="22.0" rx="2" fill="#00ff41" opacity="0.089"/><rect x="376.0" y="189.0" width="6.0" height="26.0" rx="2" fill="#00ff41" opacity="0.089"/><rect x="376.0" y="231.0" width="6.0" height="26.0" rx="2" fill="#7dffae" opacity="0.151"/><rect x="376.0" y="273.0" width="6.0" height="18.0" rx="2" fill="#00ff41" opacity="0.089"/><rect x="376.0" y="307.0" width="6.0" height="22.0" rx="2" fill="#00ff41" opacity="0.089"/><rect x="376.0" y="345.0" width="6.0" height="26.0" rx="2" fill="#00ff41" opacity="0.089"/><rect x="376.0" y="387.0" width="6.0" height="18.0" rx="2" fill="#00ff41" opacity="0.089"/><rect x="376.0" y="421.0" width="6.0" height="22.0" rx="2" fill="#00ff41" opacity="0.089"/><rect x="376.0" y="459.0" width="6.0" height="18.0" rx="2" fill="#00ff41" opacity="0.089"/><rect x="376.0" y="493.0" width="6.0" height="22.0" rx="2" fill="#00ff41" opacity="0.089"/><rect x="376.0" y="531.0" width="6.0" height="22.0" rx="2" fill="#00ff41" opacity="0.089"/><rect x="376.0" y="569.0" width="6.0" height="22.0" rx="2" fill="#00ff41" opacity="0.089"/><rect x="376.0" y="607.0" width="6.0" height="26.0" rx="2" fill="#00ff41" opacity="0.089"/><rect x="376.0" y="649.0" width="6.0" height="26.0" rx="2" fill="#00ff41" opacity="0.089"/><rect x="376.0" y="691.0" width="6.0" height="26.0" rx="2" fill="#00ff41" opacity="0.089"/><rect x="376.0" y="733.0" width="6.0" height="26.0" rx="2" fill="#00ff41" opacity="0.089"/><rect x="376.0" y="775.0" width="6.0" height="18.0" rx="2" fill="#00ff41" opacity="0.089"/><rect x="376.0" y="809.0" width="6.0" height="26.0" rx="2" fill="#7dffae" opacity="0.151"/><rect x="376.0" y="851.0" width="6.0" height="18.0" rx="2" fill="#7dffae" opacity="0.151"/><rect x="376.0" y="885.0" width="6.0" height="22.0" rx="2" fill="#00ff41" opacity="0.089"/><rect x="376.0" y="923.0" width="6.0" height="26.0" rx="2" fill="#00ff41" opacity="0.089"/><rect x="376.0" y="965.0" width="6.0" height="18.0" rx="2" fill="#7dffae" opacity="0.151"/><rect x="376.0" y="999.0" width="6.0" height="22.0" rx="2" fill="#00ff41" opacity="0.089"/><rect x="376.0" y="1037.0" width="6.0" height="18.0" rx="2" fill="#00ff41" opacity="0.089"/><rect x="460.0" y="109.0" width="6.0" height="22.0" rx="2" fill="#7dffae" opacity="0.215"/><rect x="460.0" y="147.0" width="6.0" height="22.0" rx="2" fill="#00ff41" opacity="0.127"/><rect x="460.0" y="185.0" width="6.0" height="18.0" rx="2" fill="#00ff41" opacity="0.127"/><rect x="460.0" y="219.0" width="6.0" height="18.0" rx="2" fill="#00ff41" opacity="0.127"/><rect x="460.0" y="253.0" width="6.0" height="22.0" rx="2" fill="#00ff41" opacity="0.127"/><rect x="460.0" y="291.0" width="6.0" height="22.0" rx="2" fill="#7dffae" opacity="0.215"/><rect x="460.0" y="329.0" width="6.0" height="22.0" rx="2" fill="#00ff41" opacity="0.127"/><rect x="460.0" y="367.0" width="6.0" height="26.0" rx="2" fill="#00ff41" opacity="0.127"/><rect x="460.0" y="409.0" width="6.0" height="22.0" rx="2" fill="#00ff41" opacity="0.127"/><rect x="460.0" y="447.0" width="6.0" height="22.0" rx="2" fill="#00ff41" opacity="0.127"/><rect x="460.0" y="485.0" width="6.0" height="18.0" rx="2" fill="#00ff41" opacity="0.127"/><rect x="460.0" y="519.0" width="6.0" height="18.0" rx="2" fill="#00ff41" opacity="0.127"/><rect x="460.0" y="553.0" width="6.0" height="26.0" rx="2" fill="#00ff41" opacity="0.127"/><rect x="460.0" y="595.0" width="6.0" height="22.0" rx="2" fill="#00ff41" opacity="0.127"/><rect x="460.0" y="633.0" width="6.0" height="22.0" rx="2" fill="#7dffae" opacity="0.215"/><rect x="460.0" y="671.0" width="6.0" height="22.0" rx="2" fill="#7dffae" opacity="0.215"/><rect x="460.0" y="709.0" width="6.0" height="26.0" rx="2" fill="#00ff41" opacity="0.127"/><rect x="460.0" y="751.0" width="6.0" height="22.0" rx="2" fill="#00ff41" opacity="0.127"/><rect x="460.0" y="789.0" width="6.0" height="26.0" rx="2" fill="#00ff41" opacity="0.127"/><rect x="460.0" y="831.0" width="6.0" height="26.0" rx="2" fill="#00ff41" opacity="0.127"/><rect x="460.0" y="873.0" width="6.0" height="18.0" rx="2" fill="#7dffae" opacity="0.215"/><rect x="460.0" y="907.0" width="6.0" height="18.0" rx="2" fill="#00ff41" opacity="0.127"/><rect x="460.0" y="941.0" width="6.0" height="26.0" rx="2" fill="#00ff41" opacity="0.127"/><rect x="460.0" y="983.0" width="6.0" height="26.0" rx="2" fill="#00ff41" opacity="0.127"/><rect x="460.0" y="1025.0" width="6.0" height="26.0" rx="2" fill="#00ff41" opacity="0.127"/><rect x="544.0" y="42.0" width="6.0" height="22.0" rx="2" fill="#7dffae" opacity="0.174"/><rect x="544.0" y="80.0" width="6.0" height="26.0" rx="2" fill="#00ff41" opacity="0.103"/><rect x="544.0" y="122.0" width="6.0" height="18.0" rx="2" fill="#00ff41" opacity="0.103"/><rect x="544.0" y="156.0" width="6.0" height="18.0" rx="2" fill="#00ff41" opacity="0.103"/><rect x="544.0" y="190.0" width="6.0" height="26.0" rx="2" fill="#00ff41" opacity="0.103"/><rect x="544.0" y="232.0" width="6.0" height="26.0" rx="2" fill="#00ff41" opacity="0.103"/><rect x="544.0" y="274.0" width="6.0" height="18.0" rx="2" fill="#7dffae" opacity="0.174"/><rect x="544.0" y="308.0" width="6.0" height="18.0" rx="2" fill="#00ff41" opacity="0.103"/><rect x="544.0" y="342.0" width="6.0" height="18.0" rx="2" fill="#00ff41" opacity="0.103"/><rect x="544.0" y="376.0" width="6.0" height="18.0" rx="2" fill="#00ff41" opacity="0.103"/><rect x="544.0" y="410.0" width="6.0" height="26.0" rx="2" fill="#7dffae" opacity="0.174"/><rect x="544.0" y="452.0" width="6.0" height="26.0" rx="2" fill="#00ff41" opacity="0.103"/><rect x="544.0" y="494.0" width="6.0" height="22.0" rx="2" fill="#00ff41" opacity="0.103"/><rect x="544.0" y="532.0" width="6.0" height="22.0" rx="2" fill="#00ff41" opacity="0.103"/><rect x="544.0" y="570.0" width="6.0" height="18.0" rx="2" fill="#7dffae" opacity="0.174"/><rect x="544.0" y="604.0" width="6.0" height="22.0" rx="2" fill="#00ff41" opacity="0.103"/><rect x="544.0" y="642.0" width="6.0" height="26.0" rx="2" fill="#00ff41" opacity="0.103"/><rect x="544.0" y="684.0" width="6.0" height="26.0" rx="2" fill="#00ff41" opacity="0.103"/><rect x="544.0" y="726.0" width="6.0" height="26.0" rx="2" fill="#00ff41" opacity="0.103"/><rect x="544.0" y="768.0" width="6.0" height="26.0" rx="2" fill="#00ff41" opacity="0.103"/><rect x="544.0" y="810.0" width="6.0" height="26.0" rx="2" fill="#00ff41" opacity="0.103"/><rect x="544.0" y="852.0" width="6.0" height="18.0" rx="2" fill="#00ff41" opacity="0.103"/><rect x="544.0" y="886.0" width="6.0" height="18.0" rx="2" fill="#00ff41" opacity="0.103"/><rect x="544.0" y="920.0" width="6.0" height="18.0" rx="2" fill="#00ff41" opacity="0.103"/><rect x="544.0" y="954.0" width="6.0" height="18.0" rx="2" fill="#00ff41" opacity="0.103"/><rect x="544.0" y="988.0" width="6.0" height="22.0" rx="2" fill="#00ff41" opacity="0.103"/><rect x="544.0" y="1026.0" width="6.0" height="26.0" rx="2" fill="#00ff41" opacity="0.103"/><rect x="628.0" y="84.0" width="6.0" height="26.0" rx="2" fill="#7dffae" opacity="0.093"/><rect x="628.0" y="126.0" width="6.0" height="26.0" rx="2" fill="#00ff41" opacity="0.055"/><rect x="628.0" y="168.0" width="6.0" height="22.0" rx="2" fill="#00ff41" opacity="0.055"/><rect x="628.0" y="206.0" width="6.0" height="26.0" rx="2" fill="#00ff41" opacity="0.055"/><rect x="628.0" y="248.0" width="6.0" height="18.0" rx="2" fill="#00ff41" opacity="0.055"/><rect x="628.0" y="282.0" width="6.0" height="22.0" rx="2" fill="#7dffae" opacity="0.093"/><rect x="628.0" y="320.0" width="6.0" height="18.0" rx="2" fill="#00ff41" opacity="0.055"/><rect x="628.0" y="354.0" width="6.0" height="22.0" rx="2" fill="#7dffae" opacity="0.093"/><rect x="628.0" y="392.0" width="6.0" height="18.0" rx="2" fill="#00ff41" opacity="0.055"/><rect x="628.0" y="426.0" width="6.0" height="22.0" rx="2" fill="#00ff41" opacity="0.055"/><rect x="628.0" y="464.0" width="6.0" height="26.0" rx="2" fill="#00ff41" opacity="0.055"/><rect x="628.0" y="506.0" width="6.0" height="26.0" rx="2" fill="#00ff41" opacity="0.055"/><rect x="628.0" y="548.0" width="6.0" height="18.0" rx="2" fill="#00ff41" opacity="0.055"/><rect x="628.0" y="582.0" width="6.0" height="22.0" rx="2" fill="#00ff41" opacity="0.055"/><rect x="628.0" y="620.0" width="6.0" height="26.0" rx="2" fill="#7dffae" opacity="0.093"/><rect x="628.0" y="662.0" width="6.0" height="22.0" rx="2" fill="#00ff41" opacity="0.055"/><rect x="628.0" y="700.0" width="6.0" height="18.0" rx="2" fill="#00ff41" opacity="0.055"/><rect x="628.0" y="734.0" width="6.0" height="26.0" rx="2" fill="#00ff41" opacity="0.055"/><rect x="628.0" y="776.0" width="6.0" height="26.0" rx="2" fill="#00ff41" opacity="0.055"/><rect x="628.0" y="818.0" width="6.0" height="22.0" rx="2" fill="#00ff41" opacity="0.055"/><rect x="628.0" y="856.0" width="6.0" height="22.0" rx="2" fill="#7dffae" opacity="0.093"/><rect x="628.0" y="894.0" width="6.0" height="22.0" rx="2" fill="#00ff41" opacity="0.055"/><rect x="628.0" y="932.0" width="6.0" height="22.0" rx="2" fill="#00ff41" opacity="0.055"/><rect x="628.0" y="970.0" width="6.0" height="26.0" rx="2" fill="#00ff41" opacity="0.055"/><rect x="628.0" y="1012.0" width="6.0" height="22.0" rx="2" fill="#00ff41" opacity="0.055"/><rect x="628.0" y="1050.0" width="6.0" height="18.0" rx="2" fill="#00ff41" opacity="0.055"/><rect x="712.0" y="-45.0" width="6.0" height="18.0" rx="2" fill="#7dffae" opacity="0.192"/><rect x="712.0" y="-11.0" width="6.0" height="26.0" rx="2" fill="#00ff41" opacity="0.113"/><rect x="712.0" y="31.0" width="6.0" height="22.0" rx="2" fill="#00ff41" opacity="0.113"/><rect x="712.0" y="69.0" width="6.0" height="22.0" rx="2" fill="#00ff41" opacity="0.113"/><rect x="712.0" y="107.0" width="6.0" height="22.0" rx="2" fill="#00ff41" opacity="0.113"/><rect x="712.0" y="145.0" width="6.0" height="26.0" rx="2" fill="#7dffae" opacity="0.192"/><rect x="712.0" y="187.0" width="6.0" height="22.0" rx="2" fill="#7dffae" opacity="0.192"/><rect x="712.0" y="225.0" width="6.0" height="18.0" rx="2" fill="#7dffae" opacity="0.192"/><rect x="712.0" y="259.0" width="6.0" height="18.0" rx="2" fill="#00ff41" opacity="0.113"/><rect x="712.0" y="293.0" width="6.0" height="26.0" rx="2" fill="#00ff41" opacity="0.113"/><rect x="712.0" y="335.0" width="6.0" height="26.0" rx="2" fill="#00ff41" opacity="0.113"/><rect x="712.0" y="377.0" width="6.0" height="22.0" rx="2" fill="#00ff41" opacity="0.113"/><rect x="712.0" y="415.0" width="6.0" height="18.0" rx="2" fill="#7dffae" opacity="0.192"/><rect x="712.0" y="449.0" width="6.0" height="22.0" rx="2" fill="#00ff41" opacity="0.113"/><rect x="712.0" y="487.0" width="6.0" height="26.0" rx="2" fill="#00ff41" opacity="0.113"/><rect x="712.0" y="529.0" width="6.0" height="18.0" rx="2" fill="#00ff41" opacity="0.113"/><rect x="712.0" y="563.0" width="6.0" height="26.0" rx="2" fill="#00ff41" opacity="0.113"/><rect x="712.0" y="605.0" width="6.0" height="22.0" rx="2" fill="#00ff41" opacity="0.113"/><rect x="712.0" y="643.0" width="6.0" height="18.0" rx="2" fill="#7dffae" opacity="0.192"/><rect x="712.0" y="677.0" width="6.0" height="22.0" rx="2" fill="#00ff41" opacity="0.113"/><rect x="712.0" y="715.0" width="6.0" height="26.0" rx="2" fill="#00ff41" opacity="0.113"/><rect x="712.0" y="757.0" width="6.0" height="26.0" rx="2" fill="#00ff41" opacity="0.113"/><rect x="712.0" y="799.0" width="6.0" height="18.0" rx="2" fill="#00ff41" opacity="0.113"/><rect x="712.0" y="833.0" width="6.0" height="18.0" rx="2" fill="#00ff41" opacity="0.113"/><rect x="712.0" y="867.0" width="6.0" height="22.0" rx="2" fill="#7dffae" opacity="0.192"/><rect x="712.0" y="905.0" width="6.0" height="18.0" rx="2" fill="#7dffae" opacity="0.192"/><rect x="712.0" y="939.0" width="6.0" height="22.0" rx="2" fill="#00ff41" opacity="0.113"/><rect x="712.0" y="977.0" width="6.0" height="22.0" rx="2" fill="#00ff41" opacity="0.113"/><rect x="712.0" y="1015.0" width="6.0" height="22.0" rx="2" fill="#00ff41" opacity="0.113"/><rect x="712.0" y="1053.0" width="6.0" height="18.0" rx="2" fill="#00ff41" opacity="0.113"/><rect x="796.0" y="63.0" width="6.0" height="26.0" rx="2" fill="#7dffae" opacity="0.163"/><rect x="796.0" y="105.0" width="6.0" height="18.0" rx="2" fill="#00ff41" opacity="0.096"/><rect x="796.0" y="139.0" width="6.0" height="18.0" rx="2" fill="#00ff41" opacity="0.096"/><rect x="796.0" y="173.0" width="6.0" height="18.0" rx="2" fill="#00ff41" opacity="0.096"/><rect x="796.0" y="207.0" width="6.0" height="18.0" rx="2" fill="#00ff41" opacity="0.096"/><rect x="796.0" y="241.0" width="6.0" height="18.0" rx="2" fill="#00ff41" opacity="0.096"/><rect x="796.0" y="275.0" width="6.0" height="18.0" rx="2" fill="#7dffae" opacity="0.163"/><rect x="796.0" y="309.0" width="6.0" height="18.0" rx="2" fill="#7dffae" opacity="0.163"/><rect x="796.0" y="343.0" width="6.0" height="18.0" rx="2" fill="#00ff41" opacity="0.096"/><rect x="796.0" y="377.0" width="6.0" height="22.0" rx="2" fill="#00ff41" opacity="0.096"/><rect x="796.0" y="415.0" width="6.0" height="22.0" rx="2" fill="#7dffae" opacity="0.163"/><rect x="796.0" y="453.0" width="6.0" height="22.0" rx="2" fill="#00ff41" opacity="0.096"/><rect x="796.0" y="491.0" width="6.0" height="22.0" rx="2" fill="#7dffae" opacity="0.163"/><rect x="796.0" y="529.0" width="6.0" height="26.0" rx="2" fill="#00ff41" opacity="0.096"/><rect x="796.0" y="571.0" width="6.0" height="18.0" rx="2" fill="#7dffae" opacity="0.163"/><rect x="796.0" y="605.0" width="6.0" height="26.0" rx="2" fill="#7dffae" opacity="0.163"/><rect x="796.0" y="647.0" width="6.0" height="18.0" rx="2" fill="#00ff41" opacity="0.096"/><rect x="796.0" y="681.0" width="6.0" height="22.0" rx="2" fill="#00ff41" opacity="0.096"/><rect x="796.0" y="719.0" width="6.0" height="18.0" rx="2" fill="#00ff41" opacity="0.096"/><rect x="796.0" y="753.0" width="6.0" height="22.0" rx="2" fill="#00ff41" opacity="0.096"/><rect x="796.0" y="791.0" width="6.0" height="22.0" rx="2" fill="#00ff41" opacity="0.096"/><rect x="796.0" y="829.0" width="6.0" height="18.0" rx="2" fill="#00ff41" opacity="0.096"/><rect x="796.0" y="863.0" width="6.0" height="22.0" rx="2" fill="#00ff41" opacity="0.096"/><rect x="796.0" y="901.0" width="6.0" height="26.0" rx="2" fill="#00ff41" opacity="0.096"/><rect x="796.0" y="943.0" width="6.0" height="22.0" rx="2" fill="#7dffae" opacity="0.163"/><rect x="796.0" y="981.0" width="6.0" height="18.0" rx="2" fill="#00ff41" opacity="0.096"/><rect x="796.0" y="1015.0" width="6.0" height="18.0" rx="2" fill="#00ff41" opacity="0.096"/><rect x="796.0" y="1049.0" width="6.0" height="18.0" rx="2" fill="#00ff41" opacity="0.096"/><rect x="880.0" y="58.0" width="6.0" height="18.0" rx="2" fill="#7dffae" opacity="0.160"/><rect x="880.0" y="92.0" width="6.0" height="22.0" rx="2" fill="#00ff41" opacity="0.094"/><rect x="880.0" y="130.0" width="6.0" height="22.0" rx="2" fill="#00ff41" opacity="0.094"/><rect x="880.0" y="168.0" width="6.0" height="26.0" rx="2" fill="#00ff41" opacity="0.094"/><rect x="880.0" y="210.0" width="6.0" height="22.0" rx="2" fill="#00ff41" opacity="0.094"/><rect x="880.0" y="248.0" width="6.0" height="22.0" rx="2" fill="#00ff41" opacity="0.094"/><rect x="880.0" y="286.0" width="6.0" height="22.0" rx="2" fill="#00ff41" opacity="0.094"/><rect x="880.0" y="324.0" width="6.0" height="22.0" rx="2" fill="#7dffae" opacity="0.160"/><rect x="880.0" y="362.0" width="6.0" height="18.0" rx="2" fill="#00ff41" opacity="0.094"/><rect x="880.0" y="396.0" width="6.0" height="22.0" rx="2" fill="#00ff41" opacity="0.094"/><rect x="880.0" y="434.0" width="6.0" height="26.0" rx="2" fill="#00ff41" opacity="0.094"/><rect x="880.0" y="476.0" width="6.0" height="26.0" rx="2" fill="#00ff41" opacity="0.094"/><rect x="880.0" y="518.0" width="6.0" height="22.0" rx="2" fill="#7dffae" opacity="0.160"/><rect x="880.0" y="556.0" width="6.0" height="18.0" rx="2" fill="#00ff41" opacity="0.094"/><rect x="880.0" y="590.0" width="6.0" height="18.0" rx="2" fill="#00ff41" opacity="0.094"/><rect x="880.0" y="624.0" width="6.0" height="26.0" rx="2" fill="#00ff41" opacity="0.094"/><rect x="880.0" y="666.0" width="6.0" height="22.0" rx="2" fill="#00ff41" opacity="0.094"/><rect x="880.0" y="704.0" width="6.0" height="18.0" rx="2" fill="#00ff41" opacity="0.094"/><rect x="880.0" y="738.0" width="6.0" height="18.0" rx="2" fill="#00ff41" opacity="0.094"/><rect x="880.0" y="772.0" width="6.0" height="22.0" rx="2" fill="#00ff41" opacity="0.094"/><rect x="880.0" y="810.0" width="6.0" height="26.0" rx="2" fill="#00ff41" opacity="0.094"/><rect x="880.0" y="852.0" width="6.0" height="26.0" rx="2" fill="#00ff41" opacity="0.094"/><rect x="880.0" y="894.0" width="6.0" height="26.0" rx="2" fill="#00ff41" opacity="0.094"/><rect x="880.0" y="936.0" width="6.0" height="18.0" rx="2" fill="#00ff41" opacity="0.094"/><rect x="880.0" y="970.0" width="6.0" height="18.0" rx="2" fill="#00ff41" opacity="0.094"/><rect x="880.0" y="1004.0" width="6.0" height="22.0" rx="2" fill="#00ff41" opacity="0.094"/><rect x="880.0" y="1042.0" width="6.0" height="18.0" rx="2" fill="#00ff41" opacity="0.094"/><rect x="964.0" y="-14.0" width="6.0" height="26.0" rx="2" fill="#7dffae" opacity="0.216"/><rect x="964.0" y="28.0" width="6.0" height="18.0" rx="2" fill="#00ff41" opacity="0.127"/><rect x="964.0" y="62.0" width="6.0" height="22.0" rx="2" fill="#00ff41" opacity="0.127"/><rect x="964.0" y="100.0" width="6.0" height="22.0" rx="2" fill="#00ff41" opacity="0.127"/><rect x="964.0" y="138.0" width="6.0" height="18.0" rx="2" fill="#00ff41" opacity="0.127"/><rect x="964.0" y="172.0" width="6.0" height="22.0" rx="2" fill="#7dffae" opacity="0.216"/><rect x="964.0" y="210.0" width="6.0" height="22.0" rx="2" fill="#7dffae" opacity="0.216"/><rect x="964.0" y="248.0" width="6.0" height="26.0" rx="2" fill="#7dffae" opacity="0.216"/><rect x="964.0" y="290.0" width="6.0" height="18.0" rx="2" fill="#00ff41" opacity="0.127"/><rect x="964.0" y="324.0" width="6.0" height="26.0" rx="2" fill="#00ff41" opacity="0.127"/><rect x="964.0" y="366.0" width="6.0" height="18.0" rx="2" fill="#00ff41" opacity="0.127"/><rect x="964.0" y="400.0" width="6.0" height="18.0" rx="2" fill="#00ff41" opacity="0.127"/><rect x="964.0" y="434.0" width="6.0" height="22.0" rx="2" fill="#00ff41" opacity="0.127"/><rect x="964.0" y="472.0" width="6.0" height="18.0" rx="2" fill="#00ff41" opacity="0.127"/><rect x="964.0" y="506.0" width="6.0" height="18.0" rx="2" fill="#00ff41" opacity="0.127"/><rect x="964.0" y="540.0" width="6.0" height="22.0" rx="2" fill="#00ff41" opacity="0.127"/><rect x="964.0" y="578.0" width="6.0" height="18.0" rx="2" fill="#00ff41" opacity="0.127"/><rect x="964.0" y="612.0" width="6.0" height="26.0" rx="2" fill="#00ff41" opacity="0.127"/><rect x="964.0" y="654.0" width="6.0" height="18.0" rx="2" fill="#00ff41" opacity="0.127"/><rect x="964.0" y="688.0" width="6.0" height="26.0" rx="2" fill="#00ff41" opacity="0.127"/><rect x="964.0" y="730.0" width="6.0" height="22.0" rx="2" fill="#00ff41" opacity="0.127"/><rect x="964.0" y="768.0" width="6.0" height="26.0" rx="2" fill="#00ff41" opacity="0.127"/><rect x="964.0" y="810.0" width="6.0" height="18.0" rx="2" fill="#00ff41" opacity="0.127"/><rect x="964.0" y="844.0" width="6.0" height="26.0" rx="2" fill="#00ff41" opacity="0.127"/><rect x="964.0" y="886.0" width="6.0" height="26.0" rx="2" fill="#00ff41" opacity="0.127"/><rect x="964.0" y="928.0" width="6.0" height="18.0" rx="2" fill="#00ff41" opacity="0.127"/><rect x="964.0" y="962.0" width="6.0" height="26.0" rx="2" fill="#00ff41" opacity="0.127"/><rect x="964.0" y="1004.0" width="6.0" height="22.0" rx="2" fill="#00ff41" opacity="0.127"/><rect x="964.0" y="1042.0" width="6.0" height="26.0" rx="2" fill="#7dffae" opacity="0.216"/><rect x="436.2" y="560.0" width="7.0" height="20.0" rx="3" fill="#aaffc8" opacity="0.950"/><rect x="440.7" y="526.0" width="7.0" height="20.0" rx="3" fill="#00ff41" opacity="0.851"/><rect x="443.9" y="492.0" width="7.0" height="20.0" rx="3" fill="#00ff41" opacity="0.753"/><rect x="445.7" y="458.0" width="7.0" height="20.0" rx="3" fill="#00ff41" opacity="0.654"/><rect x="445.8" y="424.0" width="7.0" height="20.0" rx="3" fill="#aaffc8" opacity="0.777"/><rect x="444.2" y="390.0" width="7.0" height="20.0" rx="3" fill="#00ff41" opacity="0.456"/><rect x="441.1" y="356.0" width="7.0" height="20.0" rx="3" fill="#00ff41" opacity="0.358"/><rect x="436.8" y="322.0" width="7.0" height="20.0" rx="3" fill="#00ff41" opacity="0.259"/><rect x="431.7" y="288.0" width="7.0" height="20.0" rx="3" fill="#aaffc8" opacity="0.224"/><rect x="426.5" y="254.0" width="7.0" height="20.0" rx="3" fill="#00ff41" opacity="0.062"/><rect x="531.8" y="545.0" width="7.0" height="20.0" rx="3" fill="#aaffc8" opacity="0.950"/><rect x="530.1" y="511.0" width="7.0" height="20.0" rx="3" fill="#00ff41" opacity="0.857"/><rect x="526.7" y="477.0" width="7.0" height="20.0" rx="3" fill="#00ff41" opacity="0.765"/><rect x="521.8" y="443.0" width="7.0" height="20.0" rx="3" fill="#00ff41" opacity="0.672"/><rect x="516.1" y="409.0" width="7.0" height="20.0" rx="3" fill="#aaffc8" opacity="0.811"/><rect x="509.9" y="375.0" width="7.0" height="20.0" rx="3" fill="#00ff41" opacity="0.486"/><rect x="504.0" y="341.0" width="7.0" height="20.0" rx="3" fill="#00ff41" opacity="0.394"/><rect x="498.8" y="307.0" width="7.0" height="20.0" rx="3" fill="#00ff41" opacity="0.301"/><rect x="494.8" y="273.0" width="7.0" height="20.0" rx="3" fill="#aaffc8" opacity="0.291"/><rect x="492.5" y="239.0" width="7.0" height="20.0" rx="3" fill="#00ff41" opacity="0.115"/><rect x="599.8" y="560.0" width="7.0" height="20.0" rx="3" fill="#aaffc8" opacity="0.950"/><rect x="594.6" y="526.0" width="7.0" height="20.0" rx="3" fill="#00ff41" opacity="0.851"/><rect x="589.5" y="492.0" width="7.0" height="20.0" rx="3" fill="#00ff41" opacity="0.753"/><rect x="585.1" y="458.0" width="7.0" height="20.0" rx="3" fill="#00ff41" opacity="0.654"/><rect x="581.9" y="424.0" width="7.0" height="20.0" rx="3" fill="#aaffc8" opacity="0.777"/><rect x="580.2" y="390.0" width="7.0" height="20.0" rx="3" fill="#00ff41" opacity="0.456"/><rect x="580.2" y="356.0" width="7.0" height="20.0" rx="3" fill="#00ff41" opacity="0.358"/><rect x="581.9" y="322.0" width="7.0" height="20.0" rx="3" fill="#00ff41" opacity="0.259"/><rect x="585.1" y="288.0" width="7.0" height="20.0" rx="3" fill="#aaffc8" opacity="0.224"/><rect x="589.4" y="254.0" width="7.0" height="20.0" rx="3" fill="#00ff41" opacity="0.062"/><path d="M 326 612 L 698 612 L 650 800 Q 644 818 622 818 L 402 818 Q 380 818 374 800 Z" fill="url(#cup)" stroke="#00ff41" stroke-opacity="0.25" stroke-width="3"/><path d="M 350 628 L 386 792 Q 388 800 396 802" fill="none" stroke="#ffffff" stroke-opacity="0.45" stroke-width="10" stroke-linecap="round"/><path d="M 694 640 C 800 632 806 770 700 778" fill="none" stroke="url(#cup)" stroke-width="30" stroke-linecap="round"/><path d="M 694 640 C 800 632 806 770 700 778" fill="none" stroke="#00ff41" stroke-opacity="0.18" stroke-width="32" stroke-linecap="round"/><ellipse cx="512" cy="612" rx="186" ry="46" fill="url(#rim)" stroke="#00ff41" stroke-opacity="0.35" stroke-width="3"/><ellipse cx="512" cy="614" rx="164" ry="37" fill="#04130a"/><rect x="553.3" y="616.9" width="6.0" height="14.0" rx="2" fill="#00ff41" opacity="0.884"/><rect x="546.2" y="587.9" width="6.0" height="14.0" rx="2" fill="#00ff41" opacity="0.907"/><rect x="477.1" y="591.4" width="6.0" height="14.0" rx="2" fill="#9dffc4" opacity="0.562"/><rect x="541.7" y="613.6" width="6.0" height="14.0" rx="2" fill="#9dffc4" opacity="0.884"/><rect x="439.9" y="601.4" width="6.0" height="14.0" rx="2" fill="#00ff41" opacity="0.822"/><rect x="511.6" y="607.0" width="6.0" height="14.0" rx="2" fill="#00ff41" opacity="0.849"/><rect x="446.2" y="606.8" width="6.0" height="14.0" rx="2" fill="#00ff41" opacity="0.576"/><rect x="509.4" y="600.8" width="6.0" height="14.0" rx="2" fill="#9dffc4" opacity="0.656"/><rect x="508.7" y="602.0" width="6.0" height="14.0" rx="2" fill="#00ff41" opacity="0.940"/><path d="M 360 600 Q 512 566 664 600" fill="none" stroke="#ffffff" stroke-opacity="0.5" stroke-width="6" stroke-linecap="round"/></g><rect x="3" y="3" width="1018" height="1018" rx="222" fill="none" stroke="#00ff41" stroke-opacity="0.18" stroke-width="3"/></svg>